# xmcd
#
# Track frame offsets:
# 150
# 14027
# 33430
# 46347
# 58422
# 74122
# 86512
# 98322
# 109602
# 124490
# 137545
# 151942
#
# Disc length: 2216 seconds
#
#
# Revision: 1
# Processed by: cddbd v1.5.2PL0 Copyright (c) Steve Scherf et al.
# Submitted via: FreeRIP 2.945 
#
DISCID=a408a60c
DTITLE=Nico and Lau - Volume 3 - Volume 3
DYEAR=2002
DGENRE=Lambadão
TTITLE0=Acho que to apaixonado
TTITLE1=Pot pourri - profundamente romantico
TTITLE2=Larga de mim
TTITLE3=Essa muie uqe por no mim
TTITLE4=Chego junto
TTITLE5=A minhoca e o minhoco
TTITLE6=Ciume
TTITLE7=Rebola chinoca
TTITLE8=Cachorrada
TTITLE9=Rodeio diferente
TTITLE10=Pobrema essa muie
TTITLE11=Dança do emborcado
EXTD=Nico and Lau - Volume 3
EXTT0=
EXTT1=
EXTT2=
EXTT3=
EXTT4=
EXTT5=
EXTT6=
EXTT7=
EXTT8=
EXTT9=
EXTT10=
EXTT11=
PLAYORDER=
